<svg width="15" height="21" viewBox="0 0 15 21" fill="none" xmlns="http://www.w3.org/2000/svg">
<path opacity="0.4" d="M7.7627 0.819946C5.1427 0.819946 3.0127 2.94995 3.0127 5.56995C3.0127 8.13995 5.0227 10.2199 7.6427 10.3099C7.7227 10.2999 7.8027 10.2999 7.8627 10.3099C7.8827 10.3099 7.89269 10.3099 7.91269 10.3099C7.9227 10.3099 7.9227 10.3099 7.9327 10.3099C10.4927 10.2199 12.5027 8.13995 12.5127 5.56995C12.5127 2.94995 10.3827 0.819946 7.7627 0.819946Z" fill="#FDCB5B"/>
<path d="M12.8427 12.97C10.0527 11.11 5.50266 11.11 2.69266 12.97C1.42266 13.82 0.722656 14.97 0.722656 16.2C0.722656 17.43 1.42266 18.57 2.68266 19.41C4.08266 20.35 5.92266 20.82 7.76266 20.82C9.60266 20.82 11.4427 20.35 12.8427 19.41C14.1027 18.56 14.8027 17.42 14.8027 16.18C14.7927 14.95 14.1027 13.81 12.8427 12.97Z" fill="#FDCB5B"/>
</svg>
