<svg width="25" height="26" viewBox="0 0 25 26" fill="none" xmlns="http://www.w3.org/2000/svg">
<path d="M20.54 5.31994L14.78 1.28994C13.21 0.189938 10.8 0.249938 9.28999 1.41994L4.27999 5.32994C3.27999 6.10994 2.48999 7.70994 2.48999 8.96994V15.8699C2.48999 18.4199 4.55999 20.4999 7.10999 20.4999H17.89C20.44 20.4999 22.51 18.4299 22.51 15.8799V9.09994C22.51 7.74994 21.64 6.08994 20.54 5.31994Z" fill="#FDCB5B"/>
<path d="M12.5 16.2499C12.09 16.2499 11.75 15.9099 11.75 15.4999V12.4999C11.75 12.0899 12.09 11.7499 12.5 11.7499C12.91 11.7499 13.25 12.0899 13.25 12.4999V15.4999C13.25 15.9099 12.91 16.2499 12.5 16.2499Z" fill="white"/>
</svg>
