<svg width="16" height="23" viewBox="0 0 16 23" fill="none" xmlns="http://www.w3.org/2000/svg">
<path d="M7.65939 11.3012C7.62939 11.3012 7.60939 11.3012 7.57939 11.3012C7.52939 11.2912 7.45939 11.2912 7.39939 11.3012C4.49939 11.2112 2.30939 8.93115 2.30939 6.12115C2.30939 3.26115 4.63939 0.931152 7.49939 0.931152C10.3594 0.931152 12.6894 3.26115 12.6894 6.12115C12.6794 8.93115 10.4794 11.2112 7.68939 11.3012C7.67939 11.3012 7.66939 11.3012 7.65939 11.3012ZM7.49939 2.43115C5.46939 2.43115 3.80939 4.09115 3.80939 6.12115C3.80939 8.12115 5.36939 9.73115 7.35939 9.80115C7.40939 9.79115 7.54939 9.79115 7.67939 9.80115C9.63939 9.71115 11.1794 8.10115 11.1894 6.12115C11.1894 4.09115 9.52939 2.43115 7.49939 2.43115Z" fill="white" fill-opacity="0.36"/>
<path d="M7.66937 22.2312C5.70937 22.2312 3.73937 21.7312 2.24937 20.7312C0.859365 19.8112 0.0993652 18.5512 0.0993652 17.1812C0.0993652 15.8112 0.859365 14.5412 2.24937 13.6112C5.24937 11.6212 10.1094 11.6212 13.0894 13.6112C14.4694 14.5312 15.2394 15.7912 15.2394 17.1612C15.2394 18.5312 14.4794 19.8012 13.0894 20.7312C11.5894 21.7312 9.62937 22.2312 7.66937 22.2312ZM3.07937 14.8712C2.11937 15.5112 1.59937 16.3312 1.59937 17.1912C1.59937 18.0412 2.12937 18.8612 3.07937 19.4912C5.56937 21.1612 9.76937 21.1612 12.2594 19.4912C13.2194 18.8512 13.7394 18.0312 13.7394 17.1712C13.7394 16.3212 13.2094 15.5012 12.2594 14.8712C9.76937 13.2112 5.56937 13.2112 3.07937 14.8712Z" fill="white" fill-opacity="0.36"/>
</svg>
