<svg width="25" height="25" viewBox="0 0 25 25" fill="none" xmlns="http://www.w3.org/2000/svg">
<path d="M18.29 23.39H6.71C3.97 23.39 1.75 21.16 1.75 18.42V11.01C1.75 9.64999 2.59 7.93999 3.67 7.09999L9.06 2.89999C10.68 1.63999 13.27 1.57999 14.95 2.75999L21.13 7.08999C22.32 7.91999 23.25 9.69999 23.25 11.15V18.43C23.25 21.16 21.03 23.39 18.29 23.39ZM9.98 4.07999L4.59 8.27999C3.88 8.83999 3.25 10.11 3.25 11.01V18.42C3.25 20.33 4.8 21.89 6.71 21.89H18.29C20.2 21.89 21.75 20.34 21.75 18.43V11.15C21.75 10.19 21.06 8.85999 20.27 8.31999L14.09 3.98999C12.95 3.18999 11.07 3.22999 9.98 4.07999Z" fill="white" fill-opacity="0.35"/>
<path d="M12.5 19.39C12.09 19.39 11.75 19.05 11.75 18.64V15.64C11.75 15.23 12.09 14.89 12.5 14.89C12.91 14.89 13.25 15.23 13.25 15.64V18.64C13.25 19.05 12.91 19.39 12.5 19.39Z" fill="white" fill-opacity="0.35"/>
</svg>
