<svg width="16" height="16" viewBox="0 0 16 16" fill="none" xmlns="http://www.w3.org/2000/svg">
<path d="M1.33333 0.0765381H14.6667C14.8877 0.0765381 15.0996 0.164335 15.2559 0.320616C15.4122 0.476896 15.5 0.688858 15.5 0.909871V14.2432C15.5 14.4642 15.4122 14.6762 15.2559 14.8325C15.0996 14.9887 14.8877 15.0765 14.6667 15.0765H1.33333C1.11232 15.0765 0.900358 14.9887 0.744078 14.8325C0.587797 14.6762 0.5 14.4642 0.5 14.2432V0.909871C0.5 0.688858 0.587797 0.476896 0.744078 0.320616C0.900358 0.164335 1.11232 0.0765381 1.33333 0.0765381ZM2.16667 1.7432V13.4099H13.8333V1.7432H2.16667ZM7.16917 10.9099L3.63333 7.37404L4.81167 6.1957L7.16917 8.5532L11.8825 3.83904L13.0617 5.01737L7.16917 10.9099Z" fill="#FDCB5B"/>
</svg>
