<svg width="1191" height="377" viewBox="0 0 1191 377" fill="none" xmlns="http://www.w3.org/2000/svg">
<path fill-rule="evenodd" clip-rule="evenodd" d="M617.644 5.48887C610.319 -1.82963 598.46 -1.82963 591.154 5.48887C583.829 12.8076 583.829 24.6477 591.154 31.9476L711.803 152.66C717.704 158.556 713.526 168.773 705.19 168.773H428.053C417.711 168.773 409 177.017 409 187.349V187.422C409 197.755 417.711 206.209 428.053 206.209H705.19C713.526 206.209 717.704 216.152 711.803 222.048L590.573 343.117C583.248 350.417 583.248 362.22 590.573 369.539C597.879 376.839 609.738 376.821 617.063 369.503L773.026 213.68C787.658 199.061 787.658 175.344 773.026 160.726C769.635 157.357 614.253 2.10112 617.644 5.48887Z" fill="#FDCB5B"/>
<path fill-rule="evenodd" clip-rule="evenodd" d="M1024.64 6.48887C1017.32 -0.829625 1005.46 -0.829625 998.154 6.48887C990.829 13.8076 990.829 25.6477 998.154 32.9476L1118.8 153.66C1124.7 159.556 1120.53 169.773 1112.19 169.773H835.053C824.711 169.773 816 178.017 816 188.349V188.422C816 198.755 824.711 207.209 835.053 207.209H1112.19C1120.53 207.209 1124.7 217.152 1118.8 223.048L997.573 344.117C990.248 351.417 990.248 363.22 997.573 370.539C1004.88 377.839 1016.74 377.821 1024.06 370.503L1180.03 214.68C1194.66 200.061 1194.66 176.344 1180.03 161.726C1176.64 158.357 1021.25 3.10112 1024.64 6.48887Z" fill="#FDCB5B"/>
<path fill-rule="evenodd" clip-rule="evenodd" d="M208.644 5.48887C201.319 -1.82963 189.46 -1.82963 182.154 5.48887C174.829 12.8076 174.829 24.6477 182.154 31.9476L302.803 152.66C308.704 158.556 304.526 168.773 296.19 168.773H19.0527C8.71136 168.773 0 177.017 0 187.349V187.422C0 197.755 8.71136 206.209 19.0527 206.209H296.19C304.526 206.209 308.704 216.152 302.803 222.048L181.573 343.117C174.248 350.417 174.248 362.22 181.573 369.539C188.879 376.839 200.738 376.821 208.063 369.503L364.026 213.68C378.658 199.061 378.658 175.344 364.026 160.726C360.635 157.357 205.253 2.10112 208.644 5.48887Z" fill="#FDCB5B"/>
</svg>
