<svg width="24" height="25" viewBox="0 0 24 25" fill="none" xmlns="http://www.w3.org/2000/svg">
<path d="M12 15.4224C13.6569 15.4224 15 14.0792 15 12.4224C15 10.7655 13.6569 9.42236 12 9.42236C10.3431 9.42236 9 10.7655 9 12.4224C9 14.0792 10.3431 15.4224 12 15.4224Z" fill="#FDCB5B"/>
<path d="M17 3.92236H7C4 3.92236 2 5.42236 2 8.92236V9.42236V15.4224V15.9224C2 19.4224 4 20.9224 7 20.9224H17C20 20.9224 22 19.4224 22 15.9224V15.4224V9.42236V8.92236C22 5.42236 20 3.92236 17 3.92236ZM7 19.4224C7 16.6024 6.09 15.5624 3.5 15.4424V15.4224V9.42236V9.40236C6.09 9.28236 7 8.24236 7 5.42236H17C17 8.24236 17.91 9.28236 20.5 9.40236V9.42236V15.4224V15.4424C17.91 15.5624 17 16.6024 17 19.4224H7Z" fill="#FDCB5B"/>
</svg>
