<svg width="11" height="14" viewBox="0 0 11 14" fill="none" xmlns="http://www.w3.org/2000/svg">
<path d="M5.74976 11.476L8.63726 8.5885C9.20828 8.01742 9.59714 7.28984 9.75466 6.49776C9.91218 5.70569 9.8313 4.88469 9.52223 4.13858C9.21316 3.39247 8.68978 2.75477 8.01829 2.3061C7.3468 1.85744 6.55735 1.61797 5.74976 1.61797C4.94217 1.61797 4.15271 1.85744 3.48122 2.3061C2.80973 2.75477 2.28636 3.39247 1.97729 4.13858C1.66822 4.88469 1.58733 5.70569 1.74485 6.49776C1.90238 7.28984 2.29124 8.01742 2.86226 8.5885L5.74976 11.476ZM5.74976 13.1257L2.03742 9.41334C1.30321 8.67911 0.803198 7.74365 0.600631 6.72525C0.398064 5.70685 0.502035 4.65126 0.899397 3.69195C1.29676 2.73264 1.96966 1.9127 2.83302 1.33583C3.69638 0.758955 4.71141 0.45105 5.74976 0.45105C6.78811 0.45105 7.80314 0.758955 8.66649 1.33583C9.52985 1.9127 10.2028 2.73264 10.6001 3.69195C10.9975 4.65126 11.1015 5.70685 10.8989 6.72525C10.6963 7.74365 10.1963 8.67911 9.46209 9.41334L5.74976 13.1257ZM5.74976 6.86767C6.05918 6.86767 6.35592 6.74476 6.57472 6.52596C6.79351 6.30717 6.91642 6.01042 6.91642 5.701C6.91642 5.39159 6.79351 5.09484 6.57472 4.87605C6.35592 4.65725 6.05918 4.53434 5.74976 4.53434C5.44034 4.53434 5.14359 4.65725 4.9248 4.87605C4.70601 5.09484 4.58309 5.39159 4.58309 5.701C4.58309 6.01042 4.70601 6.30717 4.9248 6.52596C5.14359 6.74476 5.44034 6.86767 5.74976 6.86767ZM5.74976 8.03434C5.13092 8.03434 4.53743 7.78851 4.09984 7.35092C3.66226 6.91334 3.41642 6.31984 3.41642 5.701C3.41642 5.08217 3.66226 4.48867 4.09984 4.05109C4.53743 3.6135 5.13092 3.36767 5.74976 3.36767C6.3686 3.36767 6.96209 3.6135 7.39967 4.05109C7.83726 4.48867 8.08309 5.08217 8.08309 5.701C8.08309 6.31984 7.83726 6.91334 7.39967 7.35092C6.96209 7.78851 6.3686 8.03434 5.74976 8.03434Z" fill="#3586FF"/>
</svg>
