<svg width="21" height="21" viewBox="0 0 21 21" fill="none" xmlns="http://www.w3.org/2000/svg">
<path d="M10.4019 20.7906C4.87886 20.7906 0.401855 16.3136 0.401855 10.7906C0.401855 5.26765 4.87886 0.790649 10.4019 0.790649C15.9249 0.790649 20.4019 5.26765 20.4019 10.7906C20.4019 16.3136 15.9249 20.7906 10.4019 20.7906ZM10.4019 18.7906C12.5236 18.7906 14.5584 17.9478 16.0587 16.4475C17.559 14.9472 18.4019 12.9124 18.4019 10.7906C18.4019 8.66892 17.559 6.63409 16.0587 5.1338C14.5584 3.6335 12.5236 2.79065 10.4019 2.79065C8.28012 2.79065 6.24529 3.6335 4.745 5.1338C3.24471 6.63409 2.40186 8.66892 2.40186 10.7906C2.40186 12.9124 3.24471 14.9472 4.745 16.4475C6.24529 17.9478 8.28012 18.7906 10.4019 18.7906ZM9.40186 5.79065H11.4019V7.79065H9.40186V5.79065ZM9.40186 9.79065H11.4019V15.7906H9.40186V9.79065Z" fill="#AAAAAA"/>
</svg>
