<svg width="21" height="21" viewBox="0 0 21 21" fill="none" xmlns="http://www.w3.org/2000/svg">
<path d="M10.4019 7.79065C9.60621 7.79065 8.84314 8.10672 8.28053 8.66933C7.71793 9.23194 7.40186 9.995 7.40186 10.7906C7.40186 11.5863 7.71793 12.3494 8.28053 12.912C8.84314 13.4746 9.60621 13.7906 10.4019 13.7906C11.1975 13.7906 11.9606 13.4746 12.5232 12.912C13.0858 12.3494 13.4019 11.5863 13.4019 10.7906C13.4019 9.995 13.0858 9.23194 12.5232 8.66933C11.9606 8.10672 11.1975 7.79065 10.4019 7.79065ZM10.4019 5.79065C11.7279 5.79065 12.9997 6.31743 13.9374 7.25512C14.8751 8.1928 15.4019 9.46457 15.4019 10.7906C15.4019 12.1167 14.8751 13.3885 13.9374 14.3262C12.9997 15.2639 11.7279 15.7906 10.4019 15.7906C9.07577 15.7906 7.804 15.2639 6.86632 14.3262C5.92864 13.3885 5.40186 12.1167 5.40186 10.7906C5.40186 9.46457 5.92864 8.1928 6.86632 7.25512C7.804 6.31743 9.07577 5.79065 10.4019 5.79065ZM16.9019 5.54065C16.9019 5.87217 16.7702 6.19011 16.5357 6.42453C16.3013 6.65895 15.9834 6.79065 15.6519 6.79065C15.3203 6.79065 15.0024 6.65895 14.768 6.42453C14.5336 6.19011 14.4019 5.87217 14.4019 5.54065C14.4019 5.20913 14.5336 4.89119 14.768 4.65677C15.0024 4.42235 15.3203 4.29065 15.6519 4.29065C15.9834 4.29065 16.3013 4.42235 16.5357 4.65677C16.7702 4.89119 16.9019 5.20913 16.9019 5.54065ZM10.4019 2.79065C7.92786 2.79065 7.52386 2.79765 6.37286 2.84865C5.58886 2.88565 5.06286 2.99065 4.57486 3.18065C4.14086 3.34865 3.82786 3.54965 3.49486 3.88365C3.18186 4.18605 2.94121 4.55523 2.79086 4.96365C2.60086 5.45365 2.49586 5.97865 2.45986 6.76165C2.40786 7.86565 2.40186 8.25165 2.40186 10.7906C2.40186 13.2646 2.40886 13.6686 2.45986 14.8196C2.49686 15.6026 2.60186 16.1297 2.79086 16.6166C2.96086 17.0516 3.16086 17.3646 3.49286 17.6966C3.82986 18.0326 4.14286 18.2336 4.57286 18.3996C5.06686 18.5906 5.59286 18.6966 6.37286 18.7326C7.47686 18.7846 7.86286 18.7906 10.4019 18.7906C12.8759 18.7906 13.2799 18.7836 14.4309 18.7326C15.2129 18.6956 15.7399 18.5906 16.2279 18.4016C16.6609 18.2326 16.9759 18.0317 17.3079 17.6996C17.6449 17.3626 17.8459 17.0497 18.0119 16.6196C18.2019 16.1266 18.3079 15.5996 18.3439 14.8196C18.3959 13.7156 18.4019 13.3296 18.4019 10.7906C18.4019 8.31665 18.3949 7.91265 18.3439 6.76165C18.3069 5.97965 18.2019 5.45165 18.0119 4.96365C17.8611 4.55565 17.6209 4.18661 17.3089 3.88365C17.0066 3.5705 16.6374 3.32982 16.2289 3.17965C15.7389 2.98965 15.2129 2.88465 14.4309 2.84865C13.3269 2.79665 12.9409 2.79065 10.4019 2.79065ZM10.4019 0.790649C13.1189 0.790649 13.4579 0.800649 14.5239 0.850649C15.5889 0.900649 16.3139 1.06765 16.9519 1.31565C17.6119 1.56965 18.1679 1.91365 18.7239 2.46865C19.2323 2.96855 19.6258 3.57324 19.8769 4.24065C20.1239 4.87765 20.2919 5.60365 20.3419 6.66865C20.3889 7.73465 20.4019 8.07365 20.4019 10.7906C20.4019 13.5076 20.3919 13.8466 20.3419 14.9126C20.2919 15.9776 20.1239 16.7026 19.8769 17.3406C19.6265 18.0084 19.233 18.6133 18.7239 19.1126C18.2238 19.621 17.6192 20.0144 16.9519 20.2656C16.3149 20.5126 15.5889 20.6807 14.5239 20.7306C13.4579 20.7777 13.1189 20.7906 10.4019 20.7906C7.68486 20.7906 7.34586 20.7806 6.27986 20.7306C5.21486 20.6807 4.48986 20.5126 3.85186 20.2656C3.18418 20.0151 2.57938 19.6216 2.07986 19.1126C1.57126 18.6128 1.17779 18.0081 0.926856 17.3406C0.678856 16.7036 0.511855 15.9776 0.461855 14.9126C0.414855 13.8466 0.401855 13.5076 0.401855 10.7906C0.401855 8.07365 0.411855 7.73465 0.461855 6.66865C0.511855 5.60265 0.678856 4.87865 0.926856 4.24065C1.17709 3.57283 1.57066 2.96797 2.07986 2.46865C2.57953 1.95988 3.18428 1.56638 3.85186 1.31565C4.48986 1.06765 5.21386 0.900649 6.27986 0.850649C7.34586 0.803649 7.68486 0.790649 10.4019 0.790649Z" fill="#AAAAAA"/>
</svg>
