<svg width="19" height="23" viewBox="0 0 19 23" fill="none" xmlns="http://www.w3.org/2000/svg">
<path d="M2.40186 16.7906H16.4019V9.82165C16.4019 5.93865 13.2679 2.79065 9.40186 2.79065C5.53586 2.79065 2.40186 5.93865 2.40186 9.82165V16.7906ZM9.40186 0.790649C14.3719 0.790649 18.4019 4.83365 18.4019 9.82165V18.7906H0.401855V9.82165C0.401855 4.83365 4.43186 0.790649 9.40186 0.790649ZM6.90186 19.7906H11.9019C11.9019 20.4537 11.6385 21.0896 11.1696 21.5584C10.7008 22.0273 10.0649 22.2906 9.40186 22.2906C8.73881 22.2906 8.10293 22.0273 7.63409 21.5584C7.16525 21.0896 6.90186 20.4537 6.90186 19.7906Z" fill="#AAAAAA"/>
</svg>
