<svg width="23" height="23" viewBox="0 0 23 23" fill="none" xmlns="http://www.w3.org/2000/svg">
<path d="M8.08786 3.79066L10.6949 1.18366C10.8824 0.996185 11.1367 0.890869 11.4019 0.890869C11.667 0.890869 11.9213 0.996185 12.1089 1.18366L14.7159 3.79066H18.4019C18.6671 3.79066 18.9214 3.89601 19.109 4.08355C19.2965 4.27109 19.4019 4.52544 19.4019 4.79066V8.47666L22.0089 11.0837C22.1963 11.2712 22.3016 11.5255 22.3016 11.7907C22.3016 12.0558 22.1963 12.3101 22.0089 12.4977L19.4019 15.1047V18.7907C19.4019 19.0559 19.2965 19.3102 19.109 19.4978C18.9214 19.6853 18.6671 19.7907 18.4019 19.7907H14.7159L12.1089 22.3977C11.9213 22.5851 11.667 22.6904 11.4019 22.6904C11.1367 22.6904 10.8824 22.5851 10.6949 22.3977L8.08786 19.7907H4.40186C4.13665 19.7907 3.88229 19.6853 3.69476 19.4978C3.50722 19.3102 3.40186 19.0559 3.40186 18.7907V15.1047L0.794862 12.4977C0.607391 12.3101 0.502075 12.0558 0.502075 11.7907C0.502075 11.5255 0.607391 11.2712 0.794862 11.0837L3.40186 8.47666V4.79066C3.40186 4.52544 3.50722 4.27109 3.69476 4.08355C3.88229 3.89601 4.13665 3.79066 4.40186 3.79066H8.08786ZM5.40186 5.79066V9.30566L2.91686 11.7907L5.40186 14.2757V17.7907H8.91686L11.4019 20.2757L13.8869 17.7907H17.4019V14.2757L19.8869 11.7907L17.4019 9.30566V5.79066H13.8869L11.4019 3.30566L8.91686 5.79066H5.40186ZM11.4019 15.7907C10.341 15.7907 9.32358 15.3692 8.57343 14.6191C7.82329 13.8689 7.40186 12.8515 7.40186 11.7907C7.40186 10.7298 7.82329 9.71237 8.57343 8.96223C9.32358 8.21208 10.341 7.79066 11.4019 7.79066C12.4627 7.79066 13.4801 8.21208 14.2303 8.96223C14.9804 9.71237 15.4019 10.7298 15.4019 11.7907C15.4019 12.8515 14.9804 13.8689 14.2303 14.6191C13.4801 15.3692 12.4627 15.7907 11.4019 15.7907ZM11.4019 13.7907C11.9323 13.7907 12.441 13.5799 12.8161 13.2049C13.1911 12.8298 13.4019 12.3211 13.4019 11.7907C13.4019 11.2602 13.1911 10.7515 12.8161 10.3764C12.441 10.0014 11.9323 9.79066 11.4019 9.79066C10.8714 9.79066 10.3627 10.0014 9.98765 10.3764C9.61258 10.7515 9.40186 11.2602 9.40186 11.7907C9.40186 12.3211 9.61258 12.8298 9.98765 13.2049C10.3627 13.5799 10.8714 13.7907 11.4019 13.7907Z" fill="#AAAAAA"/>
</svg>
