<svg width="19" height="23" viewBox="0 0 19 23" fill="none" xmlns="http://www.w3.org/2000/svg">
<path d="M10.4019 14.0426V16.1326C9.49678 15.8127 8.52813 15.7145 7.57726 15.8464C6.62639 15.9784 5.72105 16.3365 4.93729 16.8909C4.15352 17.4452 3.5142 18.1795 3.07302 19.0321C2.63184 19.8847 2.40167 20.8307 2.40186 21.7906L0.401856 21.7896C0.401545 20.5685 0.680777 19.3636 1.21815 18.267C1.75553 17.1705 2.53679 16.2116 3.50207 15.4637C4.46735 14.7158 5.59103 14.1988 6.78701 13.9523C7.98299 13.7058 9.21952 13.7374 10.4019 14.0426ZM8.40186 12.7906C5.08686 12.7906 2.40186 10.1056 2.40186 6.79065C2.40186 3.47565 5.08686 0.790649 8.40186 0.790649C11.7169 0.790649 14.4019 3.47565 14.4019 6.79065C14.4019 10.1056 11.7169 12.7906 8.40186 12.7906ZM8.40186 10.7906C10.6119 10.7906 12.4019 9.00065 12.4019 6.79065C12.4019 4.58065 10.6119 2.79065 8.40186 2.79065C6.19186 2.79065 4.40186 4.58065 4.40186 6.79065C4.40186 9.00065 6.19186 10.7906 8.40186 10.7906ZM14.9879 16.7906L13.1589 14.9626L14.5739 13.5476L18.8159 17.7906L14.5739 22.0336L13.1589 20.6186L14.9879 18.7906H11.4019V16.7906H14.9879Z" fill="#AAAAAA"/>
</svg>
